<?xml version="1.0" encoding="utf-8"?>
<!-- Generator: Adobe Illustrator 19.1.0, SVG Export Plug-In . SVG Version: 6.00 Build 0)  -->
<svg version="1.1" id="Layer_1" xmlns="http://www.w3.org/2000/svg" xmlns:xlink="http://www.w3.org/1999/xlink" x="0px" y="0px"
	 viewBox="-184 376 241.5 42" style="enable-background:new -184 376 241.5 42;" xml:space="preserve">
<style type="text/css">
	.st0{fill:#57ABDF;}
	.st1{fill:#7BCD33;}
</style>
<g>
	<g>
		<g>
			<path class="st0" d="M-66.5,403.4c0.2,0,0.4,0,0.6,0.1s0.3,0.2,0.5,0.3c0.1,0.1,0.2,0.3,0.3,0.5c0.1,0.2,0.1,0.4,0.1,0.6
				c0,0.4-0.2,0.8-0.5,1.1c-2.1,1.7-4.6,2.6-7.2,2.6c-3.2,0-5.9-1.1-8.1-3.4c-2.2-2.2-3.4-5-3.4-8.1c0-3.2,1.1-5.9,3.4-8.1
				c2.3-2.3,5-3.4,8.1-3.4c2.7,0,5.2,0.9,7.4,2.7c0.3,0.3,0.4,0.6,0.4,1.1c0,0.2,0,0.4-0.1,0.6s-0.2,0.3-0.3,0.5
				c-0.1,0.1-0.3,0.2-0.5,0.3c-0.2,0.1-0.4,0.1-0.6,0.1c-0.4,0-0.7-0.1-1.1-0.4c-0.7-0.6-1.5-1-2.4-1.3c-0.9-0.3-1.8-0.5-2.8-0.5
				c-2.3,0-4.3,0.8-6,2.5c-1.6,1.6-2.5,3.6-2.5,6c0,2.4,0.8,4.3,2.5,6c1.7,1.7,3.7,2.5,6,2.5c2,0,3.8-0.6,5.3-1.9
				C-67.2,403.5-66.9,403.5-66.5,403.4z"/>
			<path class="st0" d="M-47.2,400.6c0,2.2-0.8,4.1-2.4,5.7c-1.6,1.6-3.5,2.4-5.7,2.4s-4.1-0.8-5.7-2.4c-1.6-1.6-2.4-3.5-2.4-5.7
				c0-2.2,0.8-4.1,2.4-5.7s3.5-2.4,5.7-2.4s4.1,0.8,5.7,2.4c0.8,0.8,1.4,1.7,1.8,2.6S-47.2,399.5-47.2,400.6z M-55.3,395.5
				c-0.7,0-1.4,0.1-2,0.4c-0.6,0.3-1.1,0.6-1.6,1.1s-0.8,1-1.1,1.6c-0.3,0.6-0.4,1.3-0.4,2c0,0.7,0.1,1.3,0.4,2
				c0.3,0.6,0.6,1.1,1.1,1.6s1,0.8,1.6,1.1c0.6,0.3,1.3,0.4,2,0.4s1.4-0.1,2-0.4c0.6-0.3,1.1-0.6,1.6-1.1s0.8-1,1.1-1.6
				s0.4-1.3,0.4-2c0-0.7-0.1-1.3-0.4-2c-0.3-0.6-0.6-1.1-1.1-1.6s-1-0.8-1.6-1.1C-53.9,395.6-54.6,395.5-55.3,395.5z"/>
			<path class="st0" d="M-37,392.5c1.9,0,3.6,0.6,5.1,1.8v-7.2c0-0.4,0.1-0.8,0.4-1.1s0.6-0.4,1.1-0.4c0.4,0,0.8,0.1,1.1,0.4
				s0.4,0.6,0.4,1.1v13.5c0,2.2-0.8,4.1-2.4,5.7c-1.6,1.6-3.5,2.4-5.7,2.4s-4.1-0.8-5.7-2.4c-1.6-1.6-2.4-3.5-2.4-5.7
				c0-2.2,0.8-4.1,2.4-5.7S-39.2,392.5-37,392.5z M-32,400.6c0-0.7-0.1-1.3-0.4-2c-0.3-0.7-0.6-1.1-1.1-1.6s-1-0.8-1.6-1.1
				c-0.6-0.3-1.3-0.4-2-0.4s-1.4,0.1-2,0.4c-0.6,0.3-1.1,0.6-1.6,1.1s-0.8,1-1.1,1.6s-0.4,1.3-0.4,2c0,0.7,0.1,1.3,0.4,2
				c0.3,0.7,0.6,1.1,1.1,1.6s1,0.8,1.6,1.1c0.6,0.3,1.3,0.4,2,0.4s1.4-0.1,2-0.4c0.6-0.3,1.1-0.6,1.6-1.1s0.8-1,1.1-1.6
				S-32,401.3-32,400.6z"/>
			<path class="st0" d="M-14.3,404.1c0.4,0,0.8,0.1,1.1,0.4s0.4,0.6,0.4,1.1c0,0.4-0.1,0.8-0.4,1.1c-1.5,1.3-3.2,2-5.3,2
				c-2.2,0-4.1-0.8-5.7-2.4c-1.6-1.6-2.4-3.5-2.4-5.7c0-2.2,0.8-4.1,2.4-5.7s3.5-2.4,5.7-2.4s4.1,0.8,5.7,2.4
				c0.8,0.8,1.4,1.6,1.8,2.6c0.4,1,0.6,2,0.6,3.1c0,0.4-0.1,0.8-0.4,1.1c-0.3,0.3-0.7,0.4-1.1,0.4h-11.4c0.2,0.5,0.4,1,0.7,1.4
				s0.7,0.8,1.1,1.1c0.4,0.3,0.9,0.6,1.4,0.7c0.5,0.2,1,0.3,1.6,0.3s1.2-0.1,1.7-0.3c0.5-0.2,1-0.5,1.5-0.9
				C-15,404.2-14.6,404.1-14.3,404.1z M-13.6,399.1c-0.2-0.5-0.4-1-0.7-1.4c-0.3-0.4-0.7-0.8-1.1-1.1c-0.4-0.3-0.9-0.6-1.4-0.7
				s-1-0.3-1.6-0.3s-1.1,0.1-1.6,0.3c-0.5,0.2-1,0.4-1.4,0.7c-0.4,0.3-0.8,0.7-1.1,1.1c-0.3,0.4-0.6,0.9-0.7,1.4H-13.6z"/>
			<path class="st1" d="M-7.9,407.1v-20c0-0.2,0-0.4,0.1-0.6s0.2-0.4,0.3-0.5s0.3-0.2,0.5-0.3c0.2-0.1,0.4-0.1,0.6-0.1H-2
				c0.7,0,1.4,0.1,2,0.3c0.6,0.2,1.3,0.4,1.8,0.8c0.5,0.4,1.1,0.7,1.6,1.2s0.9,1,1.2,1.5s0.6,1.2,0.8,1.8c0.2,0.6,0.3,1.3,0.3,2
				c0,2.1-0.8,3.9-2.3,5.4s-3.3,2.2-5.4,2.2h-2.9v6.2c0,0.4-0.1,0.8-0.4,1.1c-0.3,0.3-0.7,0.4-1.1,0.4c-0.4,0-0.8-0.1-1.1-0.4
				C-7.7,407.9-7.9,407.5-7.9,407.1z M-4.8,388.6v9.2h2.9c0.6,0,1.2-0.1,1.8-0.4c0.6-0.2,1-0.6,1.5-1c0.4-0.4,0.7-0.9,1-1.5
				c0.2-0.6,0.4-1.2,0.4-1.8s-0.1-1.2-0.4-1.8c-0.2-0.6-0.6-1-1-1.5c-0.4-0.4-0.9-0.7-1.5-1c-0.6-0.2-1.1-0.4-1.8-0.4h-2.9V388.6z"
				/>
			<path class="st1" d="M21.3,408.6c-0.4,0-0.8-0.1-1.1-0.4c-0.3-0.3-0.4-0.6-0.4-1.1c-0.7,0.5-1.4,0.9-2.1,1.1
				c-0.7,0.2-1.5,0.4-2.4,0.4c-1,0-2-0.2-2.9-0.6s-1.7-0.9-2.4-1.6c-0.7-0.7-1.2-1.5-1.6-2.4c-0.4-0.9-0.6-1.9-0.6-2.9V394
				c0-0.4,0.1-0.8,0.4-1.1c0.3-0.3,0.7-0.4,1.1-0.4c0.4,0,0.8,0.1,1.1,0.4c0.3,0.3,0.4,0.6,0.4,1.1v7.1c0,0.6,0.1,1.2,0.4,1.8
				c0.2,0.5,0.6,1,1,1.4c0.4,0.4,0.9,0.7,1.4,1c0.5,0.2,1.1,0.4,1.8,0.4c0.6,0,1.2-0.1,1.7-0.4c0.5-0.2,1-0.6,1.4-1
				c0.4-0.4,0.7-0.9,1-1.4c0.2-0.5,0.4-1.1,0.4-1.7V394c0-0.4,0.1-0.8,0.4-1.1c0.3-0.3,0.7-0.4,1.1-0.4c0.4,0,0.8,0.1,1.1,0.4
				c0.3,0.3,0.4,0.6,0.4,1.1v13.1c0,0.4-0.1,0.8-0.4,1.1C22,408.5,21.7,408.6,21.3,408.6z"/>
			<path class="st1" d="M28.5,401c-0.9-0.3-1.5-0.7-1.9-1.1l0,0c-0.7-0.7-1.1-1.6-1.1-2.6c0-0.7,0.2-1.4,0.6-2
				c0.4-0.6,0.9-1.1,1.5-1.5c0.6-0.4,1.3-0.7,2.1-1c0.8-0.2,1.6-0.3,2.4-0.3c2.4,0,4.5,1,6.2,2.9c0.2,0.3,0.3,0.6,0.3,0.9
				c0,0.4-0.1,0.8-0.4,1.1c-0.3,0.3-0.6,0.4-1.1,0.4c-0.3,0-0.6-0.1-0.8-0.3s-0.4-0.4-0.6-0.6c-1-1-2.2-1.5-3.6-1.5
				c-1.4,0-2.5,0.4-3.3,1.3c-0.2,0.2-0.2,0.4-0.2,0.6c0,0.2,0.1,0.5,0.4,0.5l6.7,2.2c0.9,0.4,1.6,0.7,1.9,1.1l0,0
				c0.7,0.7,1.1,1.6,1.1,2.6c0,0.7-0.2,1.4-0.6,2c-0.4,0.6-0.9,1.1-1.5,1.5c-0.6,0.4-1.3,0.7-2.1,1c-0.8,0.2-1.6,0.3-2.3,0.3
				c-2.4,0-4.5-1-6.2-2.9c-0.2-0.3-0.3-0.6-0.3-0.9c0-0.4,0.1-0.8,0.4-1.1c0.3-0.3,0.6-0.4,1.1-0.4c0.3,0,0.6,0.1,0.8,0.3
				s0.4,0.4,0.6,0.5c1,1,2.2,1.5,3.6,1.5c1.4,0,2.5-0.4,3.3-1.3c0.1-0.2,0.2-0.4,0.2-0.6c0-0.3-0.1-0.5-0.4-0.6L28.5,401z"/>
			<path class="st1" d="M44.4,407.1c0,0.4-0.1,0.8-0.4,1.1c-0.3,0.3-0.7,0.4-1.1,0.4c-0.4,0-0.8-0.1-1.1-0.4
				c-0.3-0.3-0.4-0.6-0.4-1.1v-20c0-0.4,0.1-0.8,0.4-1.1c0.3-0.3,0.6-0.4,1.1-0.4c0.4,0,0.8,0.1,1.1,0.4s0.4,0.7,0.5,1.1v6.9
				c1.3-1,2.8-1.5,4.5-1.5c1,0,2,0.2,2.9,0.6s1.7,0.9,2.4,1.6c0.7,0.7,1.2,1.5,1.6,2.4c0.4,0.9,0.6,1.9,0.6,2.9v7.1
				c0,0.4-0.2,0.8-0.5,1.1c-0.3,0.3-0.6,0.4-1.1,0.4c-0.4,0-0.8-0.1-1.1-0.4c-0.3-0.3-0.4-0.6-0.4-1.1V400c0-0.6-0.1-1.2-0.4-1.7
				c-0.2-0.5-0.6-1-1-1.4s-0.9-0.7-1.4-1c-0.5-0.2-1.1-0.4-1.7-0.4c-0.6,0-1.2,0.1-1.7,0.4c-0.5,0.3-1,0.6-1.4,1s-0.7,0.9-1,1.4
				s-0.4,1.1-0.4,1.7L44.4,407.1L44.4,407.1z"/>
		</g>
	</g>
	<g>
		<g>
			<path class="st0" d="M-162.4,400.4c-2.8,0-5.5,0-8.3,0c-1.2,0-2,0.3-2.6,1.4c-2.2,4.6-4.5,9.2-6.8,13.8c-0.8,1.6-0.2,2.4,1.9,2.4
				c5.1,0,10.2,0,15.3,0c1.8,0,2.9-0.7,3.6-2.2c2.1-4.5,4.2-9.1,6.5-13.6c0.8-1.6,0.1-1.9-1.5-1.9
				C-157,400.4-159.7,400.4-162.4,400.4z M-111,398.2c-2.5-5.7-2.7-11.2-0.5-16.8c0.6-1.5,0-1.6-1.4-1.8c-5.5-0.8-4.1,6-8.6,6.4
				c-0.7,0.1-0.9,0.8-0.9,1.5c0.2,2.6-1.4,6,3.2,7c0.5,0.1,1.1,0.8,1.3,1.3C-116.6,398.9-114.2,398.9-111,398.2z M-184,376.8
				c8.3,5.1,17.5,4,26.7,3.8c-0.9-2.9-2.7-3.9-5.5-3.8C-169.9,376.8-176.9,376.8-184,376.8z M-128.6,390.2c0-3.6,0-7.2,0-10.9
				c0-0.7,0.1-1.5-1-1.6c-0.8,0-1.1,0.7-1,1.3c0.2,2.9-1.2,5.6-1,8.6c0.3,4.3-0.1,8.6,0.9,12.8c0.2,0.7-0.2,1.9,0.9,2
				c1.3,0.1,1.2-1.1,1.2-2C-128.6,397-128.6,393.6-128.6,390.2z M-124.4,390c0-3.1,0-6.3,0-9.4c0-0.7-0.1-1.6-1-1.6s-1,0.9-1,1.7
				c0,6.4,0,12.7,0,19.1c0,0.7,0.1,1.6,1,1.6s1-0.9,1-1.7C-124.4,396.4-124.4,393.2-124.4,390z M-102.7,385.8c1.9,0,3.8,0,5.6,0
				c0.7,0,1.4-0.2,1.4-1c0-0.5-0.5-0.9-1.1-0.9c-3.9,0-7.7,0-11.6,0c-0.7,0-1.3,0.4-1.2,1.1c0.1,0.6,0.7,0.7,1.3,0.7
				C-106.5,385.8-104.6,385.8-102.7,385.8z M-99.6,387.6c-1.8,0-3.5,0-5.3,0c-0.8,0-1.7,0.1-1.6,1c0.1,0.8,0.9,0.8,1.5,0.8
				c3.6,0,7.3,0,10.9,0c0.7,0,1.5-0.1,1.5-0.9c0-0.7-0.6-1-1.4-1C-95.9,387.6-97.7,387.6-99.6,387.6z M-102,391.7
				c-1.8,0-3.5,0-5.3,0c-0.6,0-1.5,0-1.6,0.7c0,0.8,0.7,1.1,1.6,1.1c3.7,0,7.3,0,11,0c0.8,0,1.4-0.4,1.4-1c0-0.7-0.8-0.9-1.5-0.9
				C-98.2,391.7-100.1,391.7-102,391.7z"/>
			<path class="st0" d="M-133.8,376c0,9,0.1,17.2,0.1,25.7c0,0.8,0.3,2-0.8,2c-1.5,0.1-1.2-1.3-1.1-2.1c0.4-2.6-0.6-3.3-3.6-3.2
				c-10.4,0.2-20.8,0-31.2,0c-5.4,0-9.1-3.2-9.2-7.6c-0.1-4.7,3.9-8.1,9.5-8.2c10.3,0,20.6-0.1,30.9,0.1c2.8,0,4.2-0.4,3.6-3.2
				c-0.2-1.2-0.1-2.5,0.5-3.5C-134.6,376-134.2,376-133.8,376z"/>
			<path class="st1" d="M-162.4,400.4c2.7,0,5.3,0,8,0c1.6,0,2.3,0.2,1.5,1.9c-2.2,4.5-4.3,9.1-6.5,13.6c-0.7,1.4-1.8,2.1-3.6,2.1
				c-5.1,0-10.2,0-15.3,0c-2,0-2.7-0.8-1.9-2.4c2.3-4.6,4.6-9.2,6.8-13.8c0.5-1.1,1.3-1.4,2.6-1.4
				C-167.9,400.4-165.1,400.4-162.4,400.4z"/>
			<path class="st1" d="M-111,398.2c-3.2,0.7-5.6,0.7-6.8-2.4c-0.2-0.5-0.8-1.2-1.3-1.3c-4.6-1.1-3-4.4-3.2-7
				c-0.1-0.7,0.2-1.4,0.9-1.5c4.4-0.3,3-7.2,8.6-6.4c1.4,0.2,2,0.3,1.4,1.8C-113.7,387-113.5,392.5-111,398.2z"/>
			<path class="st1" d="M-184,376.8c7.1,0,14.1,0.1,21.2,0c2.9,0,4.7,0.9,5.5,3.8C-166.5,380.8-175.7,381.9-184,376.8z"/>
			<path class="st1" d="M-128.6,390.2c0,3.4,0,6.8,0,10.3c0,0.9,0.1,2.1-1.2,2c-1.1-0.1-0.7-1.2-0.9-2c-1.1-4.2-0.7-8.5-0.9-12.8
				c-0.2-3,1.2-5.7,1-8.6c0-0.6,0.2-1.3,1-1.3c1.1,0,1,0.9,1,1.6C-128.6,383-128.6,386.6-128.6,390.2z"/>
			<path class="st1" d="M-124.4,390c0,3.2,0,6.5,0,9.7c0,0.7-0.1,1.7-1,1.7s-1-0.9-1-1.6c0-6.4,0-12.7,0-19.1c0-0.7,0.1-1.6,1-1.7
				c0.9,0,1,0.9,1,1.6C-124.4,383.7-124.4,386.9-124.4,390z"/>
			<path class="st0" d="M-102.7,385.8c-1.9,0-3.8,0-5.6,0c-0.5,0-1.2-0.1-1.3-0.7c-0.1-0.7,0.5-1.1,1.2-1.1c3.9,0,7.7,0,11.6,0
				c0.6,0,1.2,0.4,1.1,0.9c0,0.7-0.7,0.9-1.4,1C-99,385.8-100.8,385.8-102.7,385.8z"/>
			<path class="st0" d="M-99.6,387.6c1.9,0,3.8,0,5.6,0c0.7,0,1.4,0.3,1.4,1c0,0.8-0.8,0.9-1.5,0.9c-3.6,0-7.3,0-10.9,0
				c-0.7,0-1.5-0.1-1.5-0.8c-0.1-1,0.8-1,1.6-1C-103.1,387.5-101.4,387.6-99.6,387.6z"/>
			<path class="st0" d="M-102,391.7c1.9,0,3.8,0,5.6,0c0.7,0,1.5,0.2,1.5,0.9c0,0.6-0.7,1-1.4,1c-3.7,0-7.3,0-11,0
				c-0.9,0-1.6-0.3-1.6-1.1s0.9-0.7,1.6-0.7C-105.5,391.7-103.8,391.7-102,391.7z"/>
		</g>
	</g>
</g>
</svg>
